<mxfile host="app.diagrams.net" modified="2023-03-21T02:11:08.411Z" agent="5.0 (Windows NT 10.0; Win64; x64) AppleWebKit/537.36 (KHTML, like Gecko) Chrome/111.0.0.0 Safari/537.36" etag="D0fUIUK8vY-iy8ahLHQU" version="21.0.8" type="github" pages="2">
  <diagram name="Page-1" id="_wjpSSjuMNR0HVLs08sE">
    <mxGraphModel dx="1434" dy="764" grid="0" gridSize="10" guides="1" tooltips="1" connect="1" arrows="1" fold="1" page="1" pageScale="1" pageWidth="827" pageHeight="1169" math="0" shadow="0">
      <root>
        <mxCell id="0" />
        <mxCell id="1" parent="0" />
        <mxCell id="aOuRr2tHMaHx4UVQ0sJH-13" value="用户A" style="whiteSpace=wrap;html=1;rounded=1;shadow=1;labelBackgroundColor=none;strokeWidth=1;fontFamily=Verdana;fontSize=12;align=center;" vertex="1" parent="1">
          <mxGeometry x="300" y="60" width="120" height="60" as="geometry" />
        </mxCell>
        <mxCell id="aOuRr2tHMaHx4UVQ0sJH-14" value="业务系统A" style="whiteSpace=wrap;html=1;rounded=1;shadow=1;labelBackgroundColor=none;strokeWidth=1;fontFamily=Verdana;fontSize=12;align=center;" vertex="1" parent="1">
          <mxGeometry x="300" y="170" width="120" height="60" as="geometry" />
        </mxCell>
        <mxCell id="aOuRr2tHMaHx4UVQ0sJH-41" style="rounded=0;orthogonalLoop=1;jettySize=auto;html=1;exitX=0.5;exitY=1;exitDx=0;exitDy=0;entryX=0.5;entryY=0;entryDx=0;entryDy=0;" edge="1" parent="1" source="aOuRr2tHMaHx4UVQ0sJH-13" target="aOuRr2tHMaHx4UVQ0sJH-14">
          <mxGeometry relative="1" as="geometry" />
        </mxCell>
        <mxCell id="aOuRr2tHMaHx4UVQ0sJH-43" value="访问权限（路径）" style="whiteSpace=wrap;html=1;rounded=1;shadow=1;labelBackgroundColor=none;strokeWidth=1;fontFamily=Verdana;fontSize=12;align=center;" vertex="1" parent="1">
          <mxGeometry x="160" y="280" width="120" height="60" as="geometry" />
        </mxCell>
        <mxCell id="aOuRr2tHMaHx4UVQ0sJH-44" style="rounded=0;orthogonalLoop=1;jettySize=auto;html=1;exitX=0.5;exitY=1;exitDx=0;exitDy=0;entryX=0.558;entryY=-0.017;entryDx=0;entryDy=0;entryPerimeter=0;" edge="1" parent="1" source="aOuRr2tHMaHx4UVQ0sJH-14" target="aOuRr2tHMaHx4UVQ0sJH-43">
          <mxGeometry relative="1" as="geometry" />
        </mxCell>
        <mxCell id="aOuRr2tHMaHx4UVQ0sJH-45" value="功能权限（角色）" style="whiteSpace=wrap;html=1;rounded=1;shadow=1;labelBackgroundColor=none;strokeWidth=1;fontFamily=Verdana;fontSize=12;align=center;" vertex="1" parent="1">
          <mxGeometry x="300" y="280" width="120" height="60" as="geometry" />
        </mxCell>
        <mxCell id="aOuRr2tHMaHx4UVQ0sJH-46" style="rounded=0;orthogonalLoop=1;jettySize=auto;html=1;exitX=0.5;exitY=1;exitDx=0;exitDy=0;entryX=0.5;entryY=0;entryDx=0;entryDy=0;" edge="1" parent="1" source="aOuRr2tHMaHx4UVQ0sJH-14" target="aOuRr2tHMaHx4UVQ0sJH-45">
          <mxGeometry relative="1" as="geometry" />
        </mxCell>
        <mxCell id="aOuRr2tHMaHx4UVQ0sJH-47" value="数据权限（内容）" style="whiteSpace=wrap;html=1;rounded=1;shadow=1;labelBackgroundColor=none;strokeWidth=1;fontFamily=Verdana;fontSize=12;align=center;" vertex="1" parent="1">
          <mxGeometry x="440" y="280" width="120" height="60" as="geometry" />
        </mxCell>
        <mxCell id="aOuRr2tHMaHx4UVQ0sJH-48" style="rounded=0;orthogonalLoop=1;jettySize=auto;html=1;exitX=0.5;exitY=1;exitDx=0;exitDy=0;entryX=0.5;entryY=0;entryDx=0;entryDy=0;" edge="1" parent="1" source="aOuRr2tHMaHx4UVQ0sJH-14" target="aOuRr2tHMaHx4UVQ0sJH-47">
          <mxGeometry relative="1" as="geometry" />
        </mxCell>
        <mxCell id="aOuRr2tHMaHx4UVQ0sJH-49" value="描述具体信息，如：访问页面路径/api" style="whiteSpace=wrap;html=1;rounded=1;shadow=1;labelBackgroundColor=none;strokeWidth=1;fontFamily=Verdana;fontSize=12;align=center;" vertex="1" parent="1">
          <mxGeometry x="160" y="400" width="120" height="60" as="geometry" />
        </mxCell>
        <mxCell id="aOuRr2tHMaHx4UVQ0sJH-52" style="edgeStyle=orthogonalEdgeStyle;rounded=0;orthogonalLoop=1;jettySize=auto;html=1;exitX=0.5;exitY=1;exitDx=0;exitDy=0;entryX=0.5;entryY=0;entryDx=0;entryDy=0;" edge="1" parent="1" source="aOuRr2tHMaHx4UVQ0sJH-43" target="aOuRr2tHMaHx4UVQ0sJH-49">
          <mxGeometry relative="1" as="geometry" />
        </mxCell>
        <mxCell id="aOuRr2tHMaHx4UVQ0sJH-50" value="超级管理员" style="whiteSpace=wrap;html=1;rounded=1;shadow=1;labelBackgroundColor=none;strokeWidth=1;fontFamily=Verdana;fontSize=12;align=center;" vertex="1" parent="1">
          <mxGeometry x="300" y="400" width="120" height="60" as="geometry" />
        </mxCell>
        <mxCell id="aOuRr2tHMaHx4UVQ0sJH-53" style="edgeStyle=orthogonalEdgeStyle;rounded=0;orthogonalLoop=1;jettySize=auto;html=1;exitX=0.5;exitY=1;exitDx=0;exitDy=0;" edge="1" parent="1" source="aOuRr2tHMaHx4UVQ0sJH-45" target="aOuRr2tHMaHx4UVQ0sJH-50">
          <mxGeometry relative="1" as="geometry" />
        </mxCell>
        <mxCell id="aOuRr2tHMaHx4UVQ0sJH-51" value="敏感字段信息" style="whiteSpace=wrap;html=1;rounded=1;shadow=1;labelBackgroundColor=none;strokeWidth=1;fontFamily=Verdana;fontSize=12;align=center;" vertex="1" parent="1">
          <mxGeometry x="440" y="400" width="120" height="60" as="geometry" />
        </mxCell>
        <mxCell id="aOuRr2tHMaHx4UVQ0sJH-55" style="edgeStyle=orthogonalEdgeStyle;rounded=0;orthogonalLoop=1;jettySize=auto;html=1;exitX=0.5;exitY=1;exitDx=0;exitDy=0;entryX=0.5;entryY=0;entryDx=0;entryDy=0;" edge="1" parent="1" source="aOuRr2tHMaHx4UVQ0sJH-47" target="aOuRr2tHMaHx4UVQ0sJH-51">
          <mxGeometry relative="1" as="geometry" />
        </mxCell>
        <mxCell id="aOuRr2tHMaHx4UVQ0sJH-57" value="岗位名称" style="whiteSpace=wrap;html=1;rounded=1;shadow=1;labelBackgroundColor=none;strokeWidth=1;fontFamily=Verdana;fontSize=12;align=center;" vertex="1" parent="1">
          <mxGeometry x="304" y="519" width="120" height="60" as="geometry" />
        </mxCell>
        <mxCell id="aOuRr2tHMaHx4UVQ0sJH-58" value="业务系统A" style="whiteSpace=wrap;html=1;rounded=1;shadow=1;labelBackgroundColor=none;strokeWidth=1;fontFamily=Verdana;fontSize=12;align=center;" vertex="1" parent="1">
          <mxGeometry x="304" y="629" width="120" height="60" as="geometry" />
        </mxCell>
        <mxCell id="aOuRr2tHMaHx4UVQ0sJH-59" style="rounded=0;orthogonalLoop=1;jettySize=auto;html=1;exitX=0.5;exitY=1;exitDx=0;exitDy=0;entryX=0.5;entryY=0;entryDx=0;entryDy=0;" edge="1" parent="1" source="aOuRr2tHMaHx4UVQ0sJH-57" target="aOuRr2tHMaHx4UVQ0sJH-58">
          <mxGeometry relative="1" as="geometry" />
        </mxCell>
        <mxCell id="aOuRr2tHMaHx4UVQ0sJH-60" value="访问权限（路径）" style="whiteSpace=wrap;html=1;rounded=1;shadow=1;labelBackgroundColor=none;strokeWidth=1;fontFamily=Verdana;fontSize=12;align=center;" vertex="1" parent="1">
          <mxGeometry x="164" y="739" width="120" height="60" as="geometry" />
        </mxCell>
        <mxCell id="aOuRr2tHMaHx4UVQ0sJH-61" style="rounded=0;orthogonalLoop=1;jettySize=auto;html=1;exitX=0.5;exitY=1;exitDx=0;exitDy=0;entryX=0.558;entryY=-0.017;entryDx=0;entryDy=0;entryPerimeter=0;" edge="1" parent="1" source="aOuRr2tHMaHx4UVQ0sJH-58" target="aOuRr2tHMaHx4UVQ0sJH-60">
          <mxGeometry relative="1" as="geometry" />
        </mxCell>
        <mxCell id="aOuRr2tHMaHx4UVQ0sJH-62" value="功能权限（角色）" style="whiteSpace=wrap;html=1;rounded=1;shadow=1;labelBackgroundColor=none;strokeWidth=1;fontFamily=Verdana;fontSize=12;align=center;" vertex="1" parent="1">
          <mxGeometry x="304" y="739" width="120" height="60" as="geometry" />
        </mxCell>
        <mxCell id="aOuRr2tHMaHx4UVQ0sJH-63" style="rounded=0;orthogonalLoop=1;jettySize=auto;html=1;exitX=0.5;exitY=1;exitDx=0;exitDy=0;entryX=0.5;entryY=0;entryDx=0;entryDy=0;" edge="1" parent="1" source="aOuRr2tHMaHx4UVQ0sJH-58" target="aOuRr2tHMaHx4UVQ0sJH-62">
          <mxGeometry relative="1" as="geometry" />
        </mxCell>
        <mxCell id="aOuRr2tHMaHx4UVQ0sJH-64" value="数据权限（内容）" style="whiteSpace=wrap;html=1;rounded=1;shadow=1;labelBackgroundColor=none;strokeWidth=1;fontFamily=Verdana;fontSize=12;align=center;" vertex="1" parent="1">
          <mxGeometry x="444" y="739" width="120" height="60" as="geometry" />
        </mxCell>
        <mxCell id="aOuRr2tHMaHx4UVQ0sJH-65" style="rounded=0;orthogonalLoop=1;jettySize=auto;html=1;exitX=0.5;exitY=1;exitDx=0;exitDy=0;entryX=0.5;entryY=0;entryDx=0;entryDy=0;" edge="1" parent="1" source="aOuRr2tHMaHx4UVQ0sJH-58" target="aOuRr2tHMaHx4UVQ0sJH-64">
          <mxGeometry relative="1" as="geometry" />
        </mxCell>
        <mxCell id="aOuRr2tHMaHx4UVQ0sJH-66" value="描述具体信息，如：访问页面路径/api" style="whiteSpace=wrap;html=1;rounded=1;shadow=1;labelBackgroundColor=none;strokeWidth=1;fontFamily=Verdana;fontSize=12;align=center;" vertex="1" parent="1">
          <mxGeometry x="164" y="859" width="120" height="60" as="geometry" />
        </mxCell>
        <mxCell id="aOuRr2tHMaHx4UVQ0sJH-67" style="edgeStyle=orthogonalEdgeStyle;rounded=0;orthogonalLoop=1;jettySize=auto;html=1;exitX=0.5;exitY=1;exitDx=0;exitDy=0;entryX=0.5;entryY=0;entryDx=0;entryDy=0;" edge="1" parent="1" source="aOuRr2tHMaHx4UVQ0sJH-60" target="aOuRr2tHMaHx4UVQ0sJH-66">
          <mxGeometry relative="1" as="geometry" />
        </mxCell>
        <mxCell id="aOuRr2tHMaHx4UVQ0sJH-68" value="超级管理员" style="whiteSpace=wrap;html=1;rounded=1;shadow=1;labelBackgroundColor=none;strokeWidth=1;fontFamily=Verdana;fontSize=12;align=center;" vertex="1" parent="1">
          <mxGeometry x="304" y="859" width="120" height="60" as="geometry" />
        </mxCell>
        <mxCell id="aOuRr2tHMaHx4UVQ0sJH-69" style="edgeStyle=orthogonalEdgeStyle;rounded=0;orthogonalLoop=1;jettySize=auto;html=1;exitX=0.5;exitY=1;exitDx=0;exitDy=0;" edge="1" parent="1" source="aOuRr2tHMaHx4UVQ0sJH-62" target="aOuRr2tHMaHx4UVQ0sJH-68">
          <mxGeometry relative="1" as="geometry" />
        </mxCell>
        <mxCell id="aOuRr2tHMaHx4UVQ0sJH-70" value="敏感字段信息" style="whiteSpace=wrap;html=1;rounded=1;shadow=1;labelBackgroundColor=none;strokeWidth=1;fontFamily=Verdana;fontSize=12;align=center;" vertex="1" parent="1">
          <mxGeometry x="444" y="859" width="120" height="60" as="geometry" />
        </mxCell>
        <mxCell id="aOuRr2tHMaHx4UVQ0sJH-71" style="edgeStyle=orthogonalEdgeStyle;rounded=0;orthogonalLoop=1;jettySize=auto;html=1;exitX=0.5;exitY=1;exitDx=0;exitDy=0;entryX=0.5;entryY=0;entryDx=0;entryDy=0;" edge="1" parent="1" source="aOuRr2tHMaHx4UVQ0sJH-64" target="aOuRr2tHMaHx4UVQ0sJH-70">
          <mxGeometry relative="1" as="geometry" />
        </mxCell>
      </root>
    </mxGraphModel>
  </diagram>
  <diagram id="ukiMxaM_P0F5ygL482eI" name="第 2 页">
    <mxGraphModel dx="1050" dy="549" grid="0" gridSize="10" guides="1" tooltips="1" connect="1" arrows="1" fold="1" page="1" pageScale="1" pageWidth="1169" pageHeight="1654" math="0" shadow="0">
      <root>
        <mxCell id="0" />
        <mxCell id="1" parent="0" />
        <mxCell id="s2pmBz0EQA_NH68rRGg0-1" value="" style="rounded=0;html=1;jettySize=auto;orthogonalLoop=1;fontSize=11;endArrow=block;endFill=0;endSize=8;strokeWidth=1;shadow=0;labelBackgroundColor=none;edgeStyle=orthogonalEdgeStyle;" edge="1" parent="1" source="s2pmBz0EQA_NH68rRGg0-2" target="s2pmBz0EQA_NH68rRGg0-5">
          <mxGeometry relative="1" as="geometry" />
        </mxCell>
        <mxCell id="s2pmBz0EQA_NH68rRGg0-2" value="权限审计系统" style="rounded=1;whiteSpace=wrap;html=1;fontSize=12;glass=0;strokeWidth=1;shadow=0;" vertex="1" parent="1">
          <mxGeometry x="497" y="108" width="120" height="40" as="geometry" />
        </mxCell>
        <mxCell id="s2pmBz0EQA_NH68rRGg0-3" value="转岗审计工单" style="rounded=0;html=1;jettySize=auto;orthogonalLoop=1;fontSize=11;endArrow=block;endFill=0;endSize=8;strokeWidth=1;shadow=0;labelBackgroundColor=none;edgeStyle=orthogonalEdgeStyle;verticalAlign=bottom;align=left;horizontal=1;labelPosition=right;verticalLabelPosition=top;spacingLeft=-7;" edge="1" parent="1" source="s2pmBz0EQA_NH68rRGg0-5" target="s2pmBz0EQA_NH68rRGg0-67">
          <mxGeometry y="20" relative="1" as="geometry">
            <mxPoint as="offset" />
            <mxPoint x="557" y="327" as="targetPoint" />
          </mxGeometry>
        </mxCell>
        <mxCell id="s2pmBz0EQA_NH68rRGg0-4" value="冗余审计工单" style="edgeStyle=orthogonalEdgeStyle;rounded=0;html=1;jettySize=auto;orthogonalLoop=1;fontSize=11;endArrow=block;endFill=0;endSize=8;strokeWidth=1;shadow=0;labelBackgroundColor=none;verticalAlign=bottom;labelPosition=center;verticalLabelPosition=top;align=center;spacingRight=21;spacingBottom=-4;" edge="1" parent="1" source="s2pmBz0EQA_NH68rRGg0-5" target="s2pmBz0EQA_NH68rRGg0-6">
          <mxGeometry y="10" relative="1" as="geometry">
            <mxPoint as="offset" />
          </mxGeometry>
        </mxCell>
        <mxCell id="s2pmBz0EQA_NH68rRGg0-5" value="审计工单类型" style="rhombus;whiteSpace=wrap;html=1;shadow=0;fontFamily=Helvetica;fontSize=12;align=center;strokeWidth=1;spacing=6;spacingTop=-4;" vertex="1" parent="1">
          <mxGeometry x="507" y="198" width="100" height="80" as="geometry" />
        </mxCell>
        <mxCell id="s2pmBz0EQA_NH68rRGg0-6" value="Plug in lamp" style="rounded=1;whiteSpace=wrap;html=1;fontSize=12;glass=0;strokeWidth=1;shadow=0;" vertex="1" parent="1">
          <mxGeometry x="701" y="218" width="120" height="40" as="geometry" />
        </mxCell>
        <mxCell id="s2pmBz0EQA_NH68rRGg0-14" value="离职审计工单" style="edgeStyle=orthogonalEdgeStyle;rounded=0;html=1;jettySize=auto;orthogonalLoop=1;fontSize=11;endArrow=block;endFill=0;endSize=8;strokeWidth=1;shadow=0;labelBackgroundColor=none;exitX=0;exitY=0.5;exitDx=0;exitDy=0;entryX=0.5;entryY=0;entryDx=0;entryDy=0;editable=1;movable=1;resizable=1;rotatable=1;deletable=1;locked=0;connectable=1;verticalAlign=top;labelPosition=right;verticalLabelPosition=bottom;align=left;spacingBottom=6;spacingRight=7;" edge="1" parent="1" source="s2pmBz0EQA_NH68rRGg0-5" target="s2pmBz0EQA_NH68rRGg0-21">
          <mxGeometry y="10" relative="1" as="geometry">
            <mxPoint as="offset" />
            <mxPoint x="617" y="248" as="sourcePoint" />
            <mxPoint x="409" y="284" as="targetPoint" />
          </mxGeometry>
        </mxCell>
        <mxCell id="s2pmBz0EQA_NH68rRGg0-26" style="edgeStyle=orthogonalEdgeStyle;rounded=0;orthogonalLoop=1;jettySize=auto;html=1;exitX=0.5;exitY=1;exitDx=0;exitDy=0;entryX=0.5;entryY=0;entryDx=0;entryDy=0;labelBackgroundColor=none;endArrow=block;align=left;verticalAlign=top;endFill=0;endSize=8;strokeWidth=1;shadow=0;spacingBottom=6;spacingRight=7;" edge="1" parent="1" source="s2pmBz0EQA_NH68rRGg0-20" target="s2pmBz0EQA_NH68rRGg0-25">
          <mxGeometry relative="1" as="geometry" />
        </mxCell>
        <mxCell id="s2pmBz0EQA_NH68rRGg0-20" value="基于离职审计工单，回收用户所有权限" style="rounded=1;whiteSpace=wrap;html=1;fontSize=12;glass=0;strokeWidth=1;shadow=0;" vertex="1" parent="1">
          <mxGeometry x="319" y="622" width="120" height="40" as="geometry" />
        </mxCell>
        <mxCell id="s2pmBz0EQA_NH68rRGg0-46" style="edgeStyle=orthogonalEdgeStyle;shape=connector;rounded=0;orthogonalLoop=1;jettySize=auto;html=1;exitX=0;exitY=0.5;exitDx=0;exitDy=0;entryX=0.5;entryY=0;entryDx=0;entryDy=0;shadow=0;labelBackgroundColor=none;strokeColor=default;strokeWidth=1;fontFamily=Helvetica;fontSize=11;fontColor=default;endArrow=block;endFill=0;endSize=8;" edge="1" parent="1" source="s2pmBz0EQA_NH68rRGg0-21" target="s2pmBz0EQA_NH68rRGg0-30">
          <mxGeometry relative="1" as="geometry" />
        </mxCell>
        <mxCell id="s2pmBz0EQA_NH68rRGg0-47" value="未离职" style="edgeLabel;html=1;align=right;verticalAlign=bottom;resizable=0;points=[];fontSize=11;fontFamily=Helvetica;fontColor=default;labelPosition=left;verticalLabelPosition=top;" vertex="1" connectable="0" parent="s2pmBz0EQA_NH68rRGg0-46">
          <mxGeometry x="-0.2406" y="-1" relative="1" as="geometry">
            <mxPoint x="9" y="-1" as="offset" />
          </mxGeometry>
        </mxCell>
        <mxCell id="s2pmBz0EQA_NH68rRGg0-50" style="edgeStyle=orthogonalEdgeStyle;shape=connector;rounded=0;orthogonalLoop=1;jettySize=auto;html=1;exitX=0.5;exitY=1;exitDx=0;exitDy=0;shadow=0;labelBackgroundColor=none;strokeColor=default;strokeWidth=1;fontFamily=Helvetica;fontSize=11;fontColor=default;endArrow=block;endFill=0;endSize=8;" edge="1" parent="1" source="s2pmBz0EQA_NH68rRGg0-21" target="s2pmBz0EQA_NH68rRGg0-20">
          <mxGeometry relative="1" as="geometry" />
        </mxCell>
        <mxCell id="s2pmBz0EQA_NH68rRGg0-51" value="已离职" style="edgeLabel;html=1;align=center;verticalAlign=bottom;resizable=0;points=[];fontSize=11;fontFamily=Helvetica;fontColor=default;labelPosition=center;verticalLabelPosition=top;" vertex="1" connectable="0" parent="s2pmBz0EQA_NH68rRGg0-50">
          <mxGeometry x="-0.25" relative="1" as="geometry">
            <mxPoint y="1" as="offset" />
          </mxGeometry>
        </mxCell>
        <mxCell id="s2pmBz0EQA_NH68rRGg0-21" value="是否预离职" style="rhombus;whiteSpace=wrap;html=1;shadow=0;fontFamily=Helvetica;fontSize=12;align=center;strokeWidth=1;spacing=6;spacingTop=-4;" vertex="1" parent="1">
          <mxGeometry x="329" y="368" width="100" height="80" as="geometry" />
        </mxCell>
        <mxCell id="s2pmBz0EQA_NH68rRGg0-27" style="edgeStyle=orthogonalEdgeStyle;rounded=0;orthogonalLoop=1;jettySize=auto;html=1;exitX=0.5;exitY=1;exitDx=0;exitDy=0;labelBackgroundColor=none;endArrow=block;align=left;verticalAlign=top;endFill=0;endSize=8;strokeWidth=1;shadow=0;spacingBottom=6;spacingRight=7;" edge="1" parent="1" source="s2pmBz0EQA_NH68rRGg0-25" target="s2pmBz0EQA_NH68rRGg0-28">
          <mxGeometry relative="1" as="geometry">
            <mxPoint x="379" y="1031" as="targetPoint" />
          </mxGeometry>
        </mxCell>
        <mxCell id="s2pmBz0EQA_NH68rRGg0-25" value="生成权限回收结果结果通知用户的上级" style="rounded=1;whiteSpace=wrap;html=1;fontSize=12;glass=0;strokeWidth=1;shadow=0;" vertex="1" parent="1">
          <mxGeometry x="319" y="788" width="120" height="40" as="geometry" />
        </mxCell>
        <mxCell id="s2pmBz0EQA_NH68rRGg0-28" value="结束" style="rounded=1;whiteSpace=wrap;html=1;fontSize=12;glass=0;strokeWidth=1;shadow=0;" vertex="1" parent="1">
          <mxGeometry x="319" y="1027" width="120" height="40" as="geometry" />
        </mxCell>
        <mxCell id="s2pmBz0EQA_NH68rRGg0-29" style="edgeStyle=orthogonalEdgeStyle;rounded=0;orthogonalLoop=1;jettySize=auto;html=1;exitX=0.5;exitY=1;exitDx=0;exitDy=0;entryX=0.5;entryY=0;entryDx=0;entryDy=0;labelBackgroundColor=none;endArrow=block;align=left;verticalAlign=top;endFill=0;endSize=8;strokeWidth=1;shadow=0;spacingBottom=6;spacingRight=7;" edge="1" parent="1" source="s2pmBz0EQA_NH68rRGg0-30" target="s2pmBz0EQA_NH68rRGg0-32">
          <mxGeometry relative="1" as="geometry" />
        </mxCell>
        <mxCell id="s2pmBz0EQA_NH68rRGg0-30" value="通知上级处理工单" style="rounded=1;whiteSpace=wrap;html=1;fontSize=12;glass=0;strokeWidth=1;shadow=0;" vertex="1" parent="1">
          <mxGeometry x="143" y="481" width="120" height="40" as="geometry" />
        </mxCell>
        <mxCell id="s2pmBz0EQA_NH68rRGg0-31" style="edgeStyle=orthogonalEdgeStyle;rounded=0;orthogonalLoop=1;jettySize=auto;html=1;exitX=0.5;exitY=1;exitDx=0;exitDy=0;labelBackgroundColor=none;endArrow=block;align=left;verticalAlign=top;endFill=0;endSize=8;strokeWidth=1;shadow=0;spacingBottom=6;spacingRight=7;entryX=0.5;entryY=0;entryDx=0;entryDy=0;" edge="1" parent="1" source="s2pmBz0EQA_NH68rRGg0-32" target="s2pmBz0EQA_NH68rRGg0-37">
          <mxGeometry relative="1" as="geometry">
            <mxPoint x="203" y="854" as="targetPoint" />
          </mxGeometry>
        </mxCell>
        <mxCell id="s2pmBz0EQA_NH68rRGg0-32" value="实时更新并回收上级已确认权限" style="rounded=1;whiteSpace=wrap;html=1;fontSize=12;glass=0;strokeWidth=1;shadow=0;" vertex="1" parent="1">
          <mxGeometry x="143" y="687" width="120" height="40" as="geometry" />
        </mxCell>
        <mxCell id="s2pmBz0EQA_NH68rRGg0-48" style="shape=connector;rounded=0;orthogonalLoop=1;jettySize=auto;html=1;exitX=0.5;exitY=1;exitDx=0;exitDy=0;shadow=0;labelBackgroundColor=none;strokeColor=default;strokeWidth=1;fontFamily=Helvetica;fontSize=11;fontColor=default;endArrow=block;endFill=0;endSize=8;entryX=0;entryY=0.5;entryDx=0;entryDy=0;jumpStyle=arc;elbow=vertical;edgeStyle=orthogonalEdgeStyle;curved=1;" edge="1" parent="1" source="s2pmBz0EQA_NH68rRGg0-37" target="s2pmBz0EQA_NH68rRGg0-21">
          <mxGeometry relative="1" as="geometry">
            <mxPoint x="282" y="410" as="targetPoint" />
          </mxGeometry>
        </mxCell>
        <mxCell id="s2pmBz0EQA_NH68rRGg0-49" value="判断员工是否离职" style="edgeLabel;html=1;align=center;verticalAlign=middle;resizable=0;points=[];fontSize=11;fontFamily=Helvetica;fontColor=default;" vertex="1" connectable="0" parent="s2pmBz0EQA_NH68rRGg0-48">
          <mxGeometry x="0.2271" y="-2" relative="1" as="geometry">
            <mxPoint y="-82" as="offset" />
          </mxGeometry>
        </mxCell>
        <mxCell id="s2pmBz0EQA_NH68rRGg0-37" value="T+1更新员工在职状态" style="rounded=1;whiteSpace=wrap;html=1;fontSize=12;glass=0;strokeWidth=1;shadow=0;" vertex="1" parent="1">
          <mxGeometry x="143" y="889" width="120" height="40" as="geometry" />
        </mxCell>
        <mxCell id="s2pmBz0EQA_NH68rRGg0-69" style="edgeStyle=orthogonalEdgeStyle;shape=connector;rounded=0;orthogonalLoop=1;jettySize=auto;html=1;exitX=0.5;exitY=1;exitDx=0;exitDy=0;entryX=0.5;entryY=0;entryDx=0;entryDy=0;shadow=0;labelBackgroundColor=none;strokeColor=default;strokeWidth=1;fontFamily=Helvetica;fontSize=11;fontColor=default;endArrow=block;endFill=0;endSize=8;" edge="1" parent="1" source="s2pmBz0EQA_NH68rRGg0-67" target="s2pmBz0EQA_NH68rRGg0-68">
          <mxGeometry relative="1" as="geometry" />
        </mxCell>
        <mxCell id="s2pmBz0EQA_NH68rRGg0-67" value="设置工单每个处理节点的限期：七天" style="rounded=1;whiteSpace=wrap;html=1;fontSize=12;glass=0;strokeWidth=1;shadow=0;" vertex="1" parent="1">
          <mxGeometry x="497" y="321" width="120" height="40" as="geometry" />
        </mxCell>
        <mxCell id="s2pmBz0EQA_NH68rRGg0-71" style="edgeStyle=orthogonalEdgeStyle;shape=connector;rounded=0;orthogonalLoop=1;jettySize=auto;html=1;exitX=0.5;exitY=1;exitDx=0;exitDy=0;shadow=0;labelBackgroundColor=none;strokeColor=default;strokeWidth=1;fontFamily=Helvetica;fontSize=11;fontColor=default;endArrow=block;endFill=0;endSize=8;" edge="1" parent="1" source="s2pmBz0EQA_NH68rRGg0-68" target="s2pmBz0EQA_NH68rRGg0-70">
          <mxGeometry relative="1" as="geometry" />
        </mxCell>
        <mxCell id="s2pmBz0EQA_NH68rRGg0-68" value="即时+工作日隔天提醒：用户处理工单" style="rounded=1;whiteSpace=wrap;html=1;fontSize=12;glass=0;strokeWidth=1;shadow=0;" vertex="1" parent="1">
          <mxGeometry x="497" y="403" width="120" height="40" as="geometry" />
        </mxCell>
        <mxCell id="s2pmBz0EQA_NH68rRGg0-77" style="edgeStyle=orthogonalEdgeStyle;shape=connector;rounded=0;orthogonalLoop=1;jettySize=auto;html=1;exitX=0.5;exitY=1;exitDx=0;exitDy=0;shadow=0;labelBackgroundColor=none;strokeColor=default;strokeWidth=1;fontFamily=Helvetica;fontSize=11;fontColor=default;endArrow=block;endFill=0;endSize=8;horizontal=1;verticalAlign=top;textDirection=ltr;" edge="1" parent="1" source="s2pmBz0EQA_NH68rRGg0-70" target="s2pmBz0EQA_NH68rRGg0-72">
          <mxGeometry relative="1" as="geometry">
            <mxPoint x="557" y="619" as="targetPoint" />
          </mxGeometry>
        </mxCell>
        <mxCell id="s2pmBz0EQA_NH68rRGg0-79" value="保留部分权限" style="edgeLabel;html=1;align=center;verticalAlign=top;resizable=0;points=[];fontSize=11;fontFamily=Helvetica;fontColor=default;horizontal=0;labelPosition=center;verticalLabelPosition=bottom;rotation=90;" vertex="1" connectable="0" parent="s2pmBz0EQA_NH68rRGg0-77">
          <mxGeometry x="-0.1922" y="-1" relative="1" as="geometry">
            <mxPoint x="1" y="-18" as="offset" />
          </mxGeometry>
        </mxCell>
        <mxCell id="s2pmBz0EQA_NH68rRGg0-83" style="edgeStyle=orthogonalEdgeStyle;shape=connector;rounded=0;orthogonalLoop=1;jettySize=auto;html=1;exitX=1;exitY=0.5;exitDx=0;exitDy=0;shadow=0;labelBackgroundColor=none;strokeColor=default;strokeWidth=1;fontFamily=Helvetica;fontSize=11;fontColor=default;endArrow=block;endFill=0;endSize=8;" edge="1" parent="1" source="s2pmBz0EQA_NH68rRGg0-70" target="s2pmBz0EQA_NH68rRGg0-86">
          <mxGeometry relative="1" as="geometry">
            <mxPoint x="689" y="648" as="targetPoint" />
          </mxGeometry>
        </mxCell>
        <mxCell id="s2pmBz0EQA_NH68rRGg0-84" value="请求回收全部&lt;br&gt;权限/用户处理超时" style="edgeLabel;html=1;align=center;verticalAlign=middle;resizable=0;points=[];fontSize=11;fontFamily=Helvetica;fontColor=default;" vertex="1" connectable="0" parent="s2pmBz0EQA_NH68rRGg0-83">
          <mxGeometry x="0.1149" y="-4" relative="1" as="geometry">
            <mxPoint x="-1" y="21" as="offset" />
          </mxGeometry>
        </mxCell>
        <mxCell id="s2pmBz0EQA_NH68rRGg0-70" value="用户处理工单" style="rhombus;whiteSpace=wrap;html=1;shadow=0;fontFamily=Helvetica;fontSize=12;align=center;strokeWidth=1;spacing=6;spacingTop=-4;" vertex="1" parent="1">
          <mxGeometry x="507" y="484" width="100" height="80" as="geometry" />
        </mxCell>
        <mxCell id="s2pmBz0EQA_NH68rRGg0-75" style="edgeStyle=orthogonalEdgeStyle;shape=connector;rounded=0;orthogonalLoop=1;jettySize=auto;html=1;exitX=0.5;exitY=1;exitDx=0;exitDy=0;shadow=0;labelBackgroundColor=none;strokeColor=default;strokeWidth=1;fontFamily=Helvetica;fontSize=11;fontColor=default;endArrow=block;endFill=0;endSize=8;" edge="1" parent="1" source="s2pmBz0EQA_NH68rRGg0-72" target="s2pmBz0EQA_NH68rRGg0-74">
          <mxGeometry relative="1" as="geometry" />
        </mxCell>
        <mxCell id="s2pmBz0EQA_NH68rRGg0-72" value="即时+工作日隔天提醒：上级审核工单" style="rounded=1;whiteSpace=wrap;html=1;fontSize=12;glass=0;strokeWidth=1;shadow=0;" vertex="1" parent="1">
          <mxGeometry x="497" y="608" width="120" height="40" as="geometry" />
        </mxCell>
        <mxCell id="s2pmBz0EQA_NH68rRGg0-96" style="shape=connector;rounded=0;orthogonalLoop=1;jettySize=auto;html=1;exitX=0;exitY=0.5;exitDx=0;exitDy=0;entryX=0;entryY=0.5;entryDx=0;entryDy=0;shadow=0;labelBackgroundColor=none;strokeColor=default;strokeWidth=1;fontFamily=Helvetica;fontSize=11;fontColor=default;endArrow=block;endFill=0;endSize=8;edgeStyle=orthogonalEdgeStyle;curved=1;" edge="1" parent="1" source="s2pmBz0EQA_NH68rRGg0-74" target="s2pmBz0EQA_NH68rRGg0-70">
          <mxGeometry relative="1" as="geometry">
            <Array as="points">
              <mxPoint x="468" y="748" />
              <mxPoint x="468" y="524" />
            </Array>
          </mxGeometry>
        </mxCell>
        <mxCell id="s2pmBz0EQA_NH68rRGg0-97" value="上级驳回" style="edgeLabel;html=1;align=center;verticalAlign=middle;resizable=0;points=[];fontSize=11;fontFamily=Helvetica;fontColor=default;" vertex="1" connectable="0" parent="s2pmBz0EQA_NH68rRGg0-96">
          <mxGeometry x="0.1423" y="-2" relative="1" as="geometry">
            <mxPoint x="13" y="76" as="offset" />
          </mxGeometry>
        </mxCell>
        <mxCell id="s2pmBz0EQA_NH68rRGg0-104" value="上级同意保留部分权限" style="edgeStyle=orthogonalEdgeStyle;shape=connector;rounded=0;orthogonalLoop=1;jettySize=auto;html=1;exitX=0.5;exitY=1;exitDx=0;exitDy=0;shadow=0;labelBackgroundColor=none;strokeColor=default;strokeWidth=1;fontFamily=Helvetica;fontSize=11;fontColor=default;endArrow=block;endFill=0;endSize=8;" edge="1" parent="1" source="s2pmBz0EQA_NH68rRGg0-74" target="s2pmBz0EQA_NH68rRGg0-100">
          <mxGeometry relative="1" as="geometry" />
        </mxCell>
        <mxCell id="s2pmBz0EQA_NH68rRGg0-105" style="edgeStyle=orthogonalEdgeStyle;shape=connector;rounded=0;orthogonalLoop=1;jettySize=auto;html=1;exitX=1;exitY=0.5;exitDx=0;exitDy=0;entryX=0;entryY=0.5;entryDx=0;entryDy=0;shadow=0;labelBackgroundColor=none;strokeColor=default;strokeWidth=1;fontFamily=Helvetica;fontSize=11;fontColor=default;endArrow=block;endFill=0;endSize=8;curved=1;" edge="1" parent="1" source="s2pmBz0EQA_NH68rRGg0-74" target="s2pmBz0EQA_NH68rRGg0-86">
          <mxGeometry relative="1" as="geometry" />
        </mxCell>
        <mxCell id="s2pmBz0EQA_NH68rRGg0-106" value="上级审核超时" style="edgeLabel;html=1;align=center;verticalAlign=middle;resizable=0;points=[];fontSize=11;fontFamily=Helvetica;fontColor=default;" vertex="1" connectable="0" parent="s2pmBz0EQA_NH68rRGg0-105">
          <mxGeometry x="0.4879" y="4" relative="1" as="geometry">
            <mxPoint x="-11" y="-44" as="offset" />
          </mxGeometry>
        </mxCell>
        <mxCell id="s2pmBz0EQA_NH68rRGg0-74" value="上级审核工单" style="rhombus;whiteSpace=wrap;html=1;shadow=0;fontFamily=Helvetica;fontSize=12;align=center;strokeWidth=1;spacing=6;spacingTop=-4;" vertex="1" parent="1">
          <mxGeometry x="507" y="708" width="100" height="80" as="geometry" />
        </mxCell>
        <mxCell id="s2pmBz0EQA_NH68rRGg0-108" style="edgeStyle=orthogonalEdgeStyle;shape=connector;rounded=0;orthogonalLoop=1;jettySize=auto;html=1;exitX=0.5;exitY=1;exitDx=0;exitDy=0;entryX=1;entryY=0.5;entryDx=0;entryDy=0;shadow=0;labelBackgroundColor=none;strokeColor=default;strokeWidth=1;fontFamily=Helvetica;fontSize=11;fontColor=default;endArrow=block;endFill=0;endSize=8;" edge="1" parent="1" source="s2pmBz0EQA_NH68rRGg0-86" target="s2pmBz0EQA_NH68rRGg0-102">
          <mxGeometry relative="1" as="geometry" />
        </mxCell>
        <mxCell id="s2pmBz0EQA_NH68rRGg0-86" value="回收用户转岗审计工单中所有的权限" style="rounded=1;whiteSpace=wrap;html=1;fontSize=12;glass=0;strokeWidth=1;shadow=0;" vertex="1" parent="1">
          <mxGeometry x="655" y="785" width="120" height="40" as="geometry" />
        </mxCell>
        <mxCell id="s2pmBz0EQA_NH68rRGg0-99" style="edgeStyle=orthogonalEdgeStyle;rounded=0;orthogonalLoop=1;jettySize=auto;html=1;exitX=0.5;exitY=1;exitDx=0;exitDy=0;entryX=0.5;entryY=0;entryDx=0;entryDy=0;labelBackgroundColor=none;endArrow=block;align=left;verticalAlign=top;endFill=0;endSize=8;strokeWidth=1;shadow=0;spacingBottom=6;spacingRight=7;" edge="1" parent="1" source="s2pmBz0EQA_NH68rRGg0-100" target="s2pmBz0EQA_NH68rRGg0-102">
          <mxGeometry relative="1" as="geometry" />
        </mxCell>
        <mxCell id="s2pmBz0EQA_NH68rRGg0-100" value="保留用户需要的权限，删除不保留部分" style="rounded=1;whiteSpace=wrap;html=1;fontSize=12;glass=0;strokeWidth=1;shadow=0;" vertex="1" parent="1">
          <mxGeometry x="497" y="851" width="120" height="40" as="geometry" />
        </mxCell>
        <mxCell id="s2pmBz0EQA_NH68rRGg0-101" style="edgeStyle=orthogonalEdgeStyle;rounded=0;orthogonalLoop=1;jettySize=auto;html=1;exitX=0.5;exitY=1;exitDx=0;exitDy=0;labelBackgroundColor=none;endArrow=block;align=left;verticalAlign=top;endFill=0;endSize=8;strokeWidth=1;shadow=0;spacingBottom=6;spacingRight=7;" edge="1" parent="1" source="s2pmBz0EQA_NH68rRGg0-102" target="s2pmBz0EQA_NH68rRGg0-103">
          <mxGeometry relative="1" as="geometry">
            <mxPoint x="432" y="1230" as="targetPoint" />
          </mxGeometry>
        </mxCell>
        <mxCell id="s2pmBz0EQA_NH68rRGg0-102" value="生成权限回收结果结果通知用户的上级" style="rounded=1;whiteSpace=wrap;html=1;fontSize=12;glass=0;strokeWidth=1;shadow=0;" vertex="1" parent="1">
          <mxGeometry x="497" y="939" width="120" height="40" as="geometry" />
        </mxCell>
        <mxCell id="s2pmBz0EQA_NH68rRGg0-103" value="结束" style="rounded=1;whiteSpace=wrap;html=1;fontSize=12;glass=0;strokeWidth=1;shadow=0;" vertex="1" parent="1">
          <mxGeometry x="497" y="1027" width="120" height="40" as="geometry" />
        </mxCell>
      </root>
    </mxGraphModel>
  </diagram>
</mxfile>
